<svg width="23" height="22" viewBox="0 0 23 22" fill="none" xmlns="http://www.w3.org/2000/svg">
<path d="M7.83398 5.27148C7.45815 5.27148 7.14648 4.95982 7.14648 4.58398V1.83398C7.14648 1.45815 7.45815 1.14648 7.83398 1.14648C8.20982 1.14648 8.52148 1.45815 8.52148 1.83398V4.58398C8.52148 4.95982 8.20982 5.27148 7.83398 5.27148Z" fill="#464E5F"/>
<path d="M15.166 5.27148C14.7902 5.27148 14.4785 4.95982 14.4785 4.58398V1.83398C14.4785 1.45815 14.7902 1.14648 15.166 1.14648C15.5418 1.14648 15.8535 1.45815 15.8535 1.83398V4.58398C15.8535 4.95982 15.5418 5.27148 15.166 5.27148Z" fill="#464E5F"/>
<path d="M8.29167 13.2911C8.1725 13.2911 8.05333 13.2637 7.94333 13.2178C7.82417 13.172 7.7325 13.1078 7.64083 13.0253C7.47583 12.8511 7.375 12.622 7.375 12.3745C7.375 12.2553 7.4025 12.1361 7.44834 12.0261C7.49417 11.9161 7.55833 11.8153 7.64083 11.7236C7.7325 11.6411 7.82417 11.577 7.94333 11.5311C8.27333 11.3936 8.68583 11.467 8.9425 11.7236C9.1075 11.8978 9.20833 12.1361 9.20833 12.3745C9.20833 12.4295 9.19917 12.4937 9.19 12.5578C9.18083 12.6128 9.1625 12.6678 9.135 12.7228C9.11667 12.7778 9.08917 12.8328 9.0525 12.8878C9.025 12.9336 8.97917 12.9795 8.9425 13.0253C8.76833 13.1903 8.53 13.2911 8.29167 13.2911Z" fill="#464E5F"/>
<path d="M11.5006 13.2913C11.3815 13.2913 11.2623 13.2638 11.1523 13.218C11.0331 13.1722 10.9415 13.108 10.8498 13.0255C10.6848 12.8513 10.584 12.6221 10.584 12.3746C10.584 12.2555 10.6115 12.1363 10.6573 12.0263C10.7032 11.9163 10.7673 11.8155 10.8498 11.7238C10.9415 11.6413 11.0331 11.5771 11.1523 11.5313C11.4823 11.3846 11.8948 11.4671 12.1515 11.7238C12.3165 11.898 12.4173 12.1363 12.4173 12.3746C12.4173 12.4296 12.4081 12.4938 12.399 12.558C12.3898 12.613 12.3715 12.668 12.344 12.723C12.3256 12.778 12.2982 12.833 12.2615 12.888C12.234 12.9338 12.1881 12.9796 12.1515 13.0255C11.9773 13.1905 11.739 13.2913 11.5006 13.2913Z" fill="#464E5F"/>
<path d="M14.7077 13.2913C14.5885 13.2913 14.4693 13.2638 14.3593 13.218C14.2402 13.1722 14.1485 13.108 14.0568 13.0255C14.0202 12.9796 13.9835 12.9338 13.9468 12.888C13.9102 12.833 13.8827 12.778 13.8644 12.723C13.8369 12.668 13.8185 12.613 13.8093 12.558C13.8002 12.4938 13.791 12.4296 13.791 12.3746C13.791 12.1363 13.8918 11.898 14.0568 11.7238C14.1485 11.6413 14.2402 11.5771 14.3593 11.5313C14.6985 11.3846 15.1018 11.4671 15.3585 11.7238C15.5235 11.898 15.6243 12.1363 15.6243 12.3746C15.6243 12.4296 15.6152 12.4938 15.606 12.558C15.5968 12.613 15.5785 12.668 15.551 12.723C15.5327 12.778 15.5052 12.833 15.4685 12.888C15.441 12.9338 15.3952 12.9796 15.3585 13.0255C15.1843 13.1905 14.946 13.2913 14.7077 13.2913Z" fill="#464E5F"/>
<path d="M8.29167 16.4996C8.1725 16.4996 8.05333 16.4721 7.94333 16.4263C7.83333 16.3804 7.7325 16.3163 7.64083 16.2338C7.47583 16.0596 7.375 15.8213 7.375 15.5829C7.375 15.4638 7.4025 15.3446 7.44834 15.2346C7.49417 15.1154 7.55833 15.0146 7.64083 14.9321C7.98 14.5929 8.60333 14.5929 8.9425 14.9321C9.1075 15.1063 9.20833 15.3446 9.20833 15.5829C9.20833 15.8213 9.1075 16.0596 8.9425 16.2338C8.76833 16.3988 8.53 16.4996 8.29167 16.4996Z" fill="#464E5F"/>
<path d="M11.5006 16.4996C11.2623 16.4996 11.024 16.3988 10.8498 16.2338C10.6848 16.0596 10.584 15.8213 10.584 15.5829C10.584 15.4638 10.6115 15.3446 10.6573 15.2346C10.7032 15.1154 10.7673 15.0146 10.8498 14.9321C11.189 14.5929 11.8123 14.5929 12.1515 14.9321C12.234 15.0146 12.2981 15.1154 12.344 15.2346C12.3898 15.3446 12.4173 15.4638 12.4173 15.5829C12.4173 15.8213 12.3165 16.0596 12.1515 16.2338C11.9773 16.3988 11.739 16.4996 11.5006 16.4996Z" fill="#464E5F"/>
<path d="M14.7077 16.5002C14.4693 16.5002 14.231 16.3993 14.0568 16.2343C13.9743 16.1518 13.9102 16.051 13.8644 15.9318C13.8185 15.8218 13.791 15.7027 13.791 15.5835C13.791 15.4643 13.8185 15.3452 13.8644 15.2352C13.9102 15.116 13.9743 15.0152 14.0568 14.9327C14.2677 14.7218 14.5885 14.621 14.8818 14.6852C14.946 14.6943 15.001 14.7127 15.056 14.7402C15.111 14.7585 15.166 14.786 15.221 14.8227C15.2668 14.8502 15.3127 14.896 15.3585 14.9327C15.5235 15.1068 15.6243 15.3452 15.6243 15.5835C15.6243 15.8218 15.5235 16.0602 15.3585 16.2343C15.1843 16.3993 14.946 16.5002 14.7077 16.5002Z" fill="#464E5F"/>
<path d="M19.2923 9.01953H3.70898C3.33315 9.01953 3.02148 8.70786 3.02148 8.33203C3.02148 7.9562 3.33315 7.64453 3.70898 7.64453H19.2923C19.6682 7.64453 19.9798 7.9562 19.9798 8.33203C19.9798 8.70786 19.6682 9.01953 19.2923 9.01953Z" fill="#464E5F"/>
<path d="M15.1667 20.8548H7.83333C4.4875 20.8548 2.5625 18.9298 2.5625 15.584V7.79232C2.5625 4.44648 4.4875 2.52148 7.83333 2.52148H15.1667C18.5125 2.52148 20.4375 4.44648 20.4375 7.79232V15.584C20.4375 18.9298 18.5125 20.8548 15.1667 20.8548ZM7.83333 3.89648C5.21167 3.89648 3.9375 5.17065 3.9375 7.79232V15.584C3.9375 18.2057 5.21167 19.4798 7.83333 19.4798H15.1667C17.7883 19.4798 19.0625 18.2057 19.0625 15.584V7.79232C19.0625 5.17065 17.7883 3.89648 15.1667 3.89648H7.83333Z" fill="#464E5F"/>
</svg>
