<?xml version="1.0" encoding="UTF-8"?>
<svg xmlns="http://www.w3.org/2000/svg" xmlns:xlink="http://www.w3.org/1999/xlink" width="24px" height="24px" viewBox="0 0 24 24" version="1.1">
<g id="surface1">
<path style=" stroke:none;fill-rule:nonzero;fill:rgb(0%,0%,0%);fill-opacity:1;" d="M 10.140625 10.523438 C 10.140625 10.523438 9.308594 10.519531 8.464844 10.9375 C 7.625 11.359375 6.757812 12.277344 6.757812 13.90625 L 6.757812 19.914062 L 12.402344 20.289062 L 7.519531 19.535156 L 7.519531 13.898438 C 7.519531 12.519531 8.152344 11.9375 8.8125 11.597656 C 9.476562 11.265625 10.148438 11.261719 10.148438 11.261719 L 13.910156 11.261719 C 13.910156 11.261719 14.582031 11.269531 15.242188 11.597656 C 15.90625 11.929688 16.539062 12.515625 16.539062 13.898438 L 16.539062 19.535156 L 15.410156 19.535156 L 16.914062 20.289062 L 17.292969 13.90625 C 17.292969 12.273438 16.421875 11.363281 15.574219 10.9375 C 14.734375 10.519531 13.898438 10.523438 13.898438 10.523438 Z M 10.140625 10.523438 "/>
<path style=" stroke:none;fill-rule:nonzero;fill:rgb(0%,0%,0%);fill-opacity:1;" d="M 9.757812 15.054688 L 11.378906 17.570312 L 10.035156 15.164062 Z M 9.757812 15.054688 "/>
<path style=" stroke:none;fill-rule:nonzero;fill:rgb(0%,0%,0%);fill-opacity:1;" d="M 14.203125 13.902344 L 11.328125 17.042969 L 14.519531 14.527344 Z M 14.203125 13.902344 "/>
<path style=" stroke:none;fill-rule:nonzero;fill:rgb(0%,0%,0%);fill-opacity:1;" d="M 12.027344 3.761719 C 10.351562 3.761719 9.019531 5.144531 9.019531 6.773438 C 9.019531 8.433594 10.367188 9.785156 12.027344 9.785156 C 13.691406 9.785156 15.039062 8.433594 15.039062 6.773438 C 15.039062 5.113281 13.6875 3.761719 12.027344 3.761719 Z M 12.027344 4.515625 C 13.277344 4.515625 14.285156 5.519531 14.285156 6.773438 C 14.285156 8.023438 13.28125 9.03125 12.027344 9.03125 C 10.777344 9.03125 9.769531 8.023438 9.769531 6.773438 C 9.769531 5.558594 10.757812 4.515625 12.027344 4.515625 Z M 12.027344 4.515625 "/>
<path style=" stroke:none;fill-rule:nonzero;fill:rgb(0%,0%,0%);fill-opacity:1;" d="M 3.761719 12.398438 C 3.761719 12.398438 3.121094 12.394531 2.46875 12.71875 C 1.816406 13.046875 1.132812 13.777344 1.132812 15.035156 L 1.132812 18.785156 C 1.132812 18.992188 1.300781 19.160156 1.507812 19.160156 L 7.148438 19.160156 C 7.355469 19.164062 7.523438 18.992188 7.523438 18.785156 L 7.523438 13.898438 C 7.523438 13.53125 7.574219 13.226562 7.660156 12.957031 C 7.722656 12.75 7.59375 12.53125 7.382812 12.480469 C 7.183594 12.429688 7.148438 12.398438 6.773438 12.394531 Z M 3.761719 13.148438 L 6.757812 13.148438 C 6.757812 13.148438 6.855469 13.164062 6.878906 13.164062 C 6.832031 13.402344 6.773438 13.621094 6.773438 13.902344 L 6.773438 18.417969 L 1.886719 18.417969 L 1.886719 15.039062 C 1.886719 14.035156 2.332031 13.636719 2.804688 13.402344 C 3.277344 13.167969 3.765625 13.160156 3.765625 13.160156 Z M 3.761719 13.148438 "/>
<path style=" stroke:none;fill-rule:nonzero;fill:rgb(0%,0%,0%);fill-opacity:1;" d="M 5.253906 7.144531 C 4.011719 7.144531 2.996094 8.15625 2.996094 9.402344 C 2.996094 10.640625 4.011719 11.660156 5.253906 11.660156 C 6.5 11.660156 7.511719 10.644531 7.511719 9.402344 C 7.511719 8.160156 6.5 7.144531 5.253906 7.144531 Z M 5.253906 7.894531 C 6.089844 7.894531 6.757812 8.5625 6.757812 9.398438 C 6.757812 10.234375 6.089844 10.90625 5.253906 10.90625 C 4.417969 10.90625 3.75 10.234375 3.75 9.398438 C 3.75 8.566406 4.417969 7.894531 5.253906 7.894531 Z M 5.253906 7.894531 "/>
<path style=" stroke:none;fill-rule:nonzero;fill:rgb(0%,0%,0%);fill-opacity:1;" d="M 16.617188 12.484375 C 16.402344 12.53125 16.273438 12.75 16.339844 12.960938 C 16.421875 13.226562 16.472656 13.53125 16.472656 13.898438 L 16.472656 18.785156 C 16.472656 18.992188 16.640625 19.160156 16.847656 19.164062 L 22.488281 19.164062 C 22.695312 19.164062 22.863281 18.992188 22.863281 18.785156 L 22.863281 15.035156 C 22.863281 13.785156 22.183594 13.046875 21.53125 12.722656 C 20.878906 12.394531 20.234375 12.398438 20.234375 12.398438 L 17.226562 12.398438 C 16.847656 12.398438 16.8125 12.441406 16.613281 12.484375 Z M 17.238281 13.148438 L 20.234375 13.148438 C 20.234375 13.148438 20.71875 13.15625 21.191406 13.394531 C 21.667969 13.628906 22.113281 14.027344 22.113281 15.027344 L 22.113281 18.40625 L 17.226562 18.40625 L 17.226562 13.890625 C 17.226562 13.613281 17.164062 13.390625 17.121094 13.15625 C 17.144531 13.152344 17.242188 13.136719 17.242188 13.136719 Z M 17.238281 13.148438 "/>
<path style=" stroke:none;fill-rule:nonzero;fill:rgb(0%,0%,0%);fill-opacity:1;" d="M 18.746094 7.144531 C 17.503906 7.144531 16.488281 8.15625 16.488281 9.402344 C 16.488281 10.640625 17.5 11.660156 18.746094 11.660156 C 19.988281 11.660156 21.003906 10.644531 21.003906 9.402344 C 21.003906 8.160156 19.988281 7.144531 18.746094 7.144531 Z M 18.746094 7.894531 C 19.582031 7.894531 20.25 8.5625 20.25 9.398438 C 20.25 10.234375 19.582031 10.90625 18.746094 10.90625 C 17.910156 10.90625 17.242188 10.234375 17.242188 9.398438 C 17.242188 8.566406 17.910156 7.894531 18.746094 7.894531 Z M 18.746094 7.894531 "/>
</g>
</svg>
