
<svg id="Layer_1" enable-background="new 0 0 512 512" viewBox="0 0 512 512" xmlns="http://www.w3.org/2000/svg" height="24" width="24">
<path d="m413.149 290.507v-165.982h-365.137v288.623h242.496v-36.838h-48.457c-4.418 0-8-3.582-8-8s3.582-8 8-8h72.445l-13.434-13.434 10.356-10.355h-69.367c-4.418 0-8-3.582-8-8s3.582-8 8-8h85.367l19.458-19.458 14.318 14.318c3.624-1.769 7.353-3.314 11.165-4.628v-14.021h-130.308c-4.418 0-8-3.582-8-8s3.582-8 8-8h143.214c4.418 0 8 3.582 8 8 0 .61-.069 1.204-.198 1.776h20.082zm-273.448-127.918c19.095 0 34.575 15.479 34.575 34.574s-15.479 34.574-34.575 34.574c-19.095 0-34.574-15.48-34.574-34.574s15.479-34.574 34.574-34.574zm63.304 208.612c0 2.136-1.748 3.884-3.884 3.884h-118.84c-2.136 0-3.884-1.747-3.884-3.884v-30.886c0-2.137 1.748-3.884 3.884-3.884h118.84c2.136 0 3.884 1.748 3.884 3.884zm-3.962-72.153h-118.684c-2.612 0-4.646-2.192-4.45-4.796 2.473-32.967 30.221-59.175 63.792-59.175 33.572 0 61.319 26.208 63.792 59.175.196 2.604-1.838 4.796-4.45 4.796zm43.008-137.683h143.214c4.418 0 8 3.582 8 8s-3.582 8-8 8h-143.214c-4.418 0-8-3.582-8-8 0-4.419 3.582-8 8-8zm0 39.789h143.214c4.418 0 8 3.582 8 8s-3.582 8-8 8h-143.214c-4.418 0-8-3.582-8-8 0-4.419 3.582-8 8-8zm143.214 55.788h-143.214c-4.418 0-8-3.582-8-8s3.582-8 8-8h143.214c4.418 0 8 3.582 8 8 0 4.419-3.582 8-8 8zm-74.513 180.206c1.314 3.812 2.86 7.542 4.628 11.166l-3.846 3.846h-272.688c-16.416 0-29.846-13.431-29.846-29.846v-336.8h443.16v226.02l-3.847 3.847c-3.624-1.769-7.352-3.315-11.164-4.628v-20.246h-8v-173.982c0-4.418-3.582-8-8-8h-381.137c-4.418 0-8 3.582-8 8v304.623c0 4.418 3.582 8 8 8h250.496v8zm141.408-398.302c0-16.415-13.43-29.846-29.846-29.846h-383.468c-16.416 0-29.846 13.431-29.846 29.846v30.669h443.16zm-401.527 12.073c-6.441 0-11.662-5.221-11.662-11.662s5.221-11.662 11.662-11.662 11.662 5.221 11.662 11.662c-.001 6.441-5.222 11.662-11.662 11.662zm48.355 0c-6.441 0-11.662-5.221-11.662-11.662s5.222-11.662 11.662-11.662c6.441 0 11.662 5.221 11.662 11.662s-5.222 11.662-11.662 11.662zm48.355 0c-6.441 0-11.662-5.221-11.662-11.662s5.221-11.662 11.662-11.662 11.662 5.221 11.662 11.662-5.222 11.662-11.662 11.662zm261.06-3.662h-129.897c-4.418 0-8-3.582-8-8s3.582-8 8-8h129.897c4.418 0 8 3.582 8 8s-3.582 8-8 8zm78.144 341.102c-2.165-10.855-6.434-20.952-12.369-29.844l11.639-11.639-23.185-23.186-11.639 11.639c-8.892-5.934-18.987-10.205-29.844-12.37v-16.452h-32.79v16.452c-10.856 2.165-20.953 6.434-29.844 12.369l-11.639-11.639-23.186 23.186 11.639 11.639c-5.934 8.892-10.206 18.988-12.37 29.844h-16.451v32.79h16.451c2.165 10.856 6.435 20.953 12.369 29.845l-11.638 11.638 23.186 23.186 11.638-11.638c8.893 5.934 18.988 10.205 29.845 12.369v16.452h32.79v-16.451c10.856-2.165 20.953-6.435 29.844-12.37l11.638 11.638 23.186-23.186-11.639-11.639c5.934-8.892 10.205-18.988 12.369-29.844h16.453v-32.79h-16.453zm-81.793 71.63c-30.506 0-55.235-24.729-55.235-55.235s24.729-55.235 55.235-55.235 55.235 24.729 55.235 55.235-24.73 55.235-55.235 55.235z"/>
</svg>